<svg width="197" height="104" viewBox="0 0 197 104" fill="none" xmlns="http://www.w3.org/2000/svg">
<g id="LOGO">
<path id="Vector" d="M69.0167 0H34.5083V40.8402H69.0167V0Z" fill="#5A5A5A"/>
<path id="Vector_2" d="M34.5084 40.8401H0V81.6803H34.5084V40.8401Z" fill="#E4E4E4"/>
<path id="Vector_3" d="M69.0167 40.8401H34.5083V81.6803H69.0167V40.8401Z" fill="#B55890"/>
<path id="Vector_4" d="M95.3713 65.0501L104.3 68.2431C103.7 71.2056 102.756 73.68 101.466 75.6668C100.176 77.6536 98.5727 79.1522 96.6534 80.1637C94.7485 81.1753 92.3197 81.6805 89.3659 81.6805C85.7817 81.6805 82.8509 81.0686 80.5718 79.8447C78.3071 78.6027 76.3504 76.4297 74.7017 73.3258C73.0521 70.2211 72.2268 66.2475 72.2268 61.4047C72.2268 54.9477 73.6739 49.9896 76.5682 46.5304C79.4769 43.0536 83.5851 41.3152 88.8938 41.3152C93.0471 41.3152 96.3079 42.3086 98.6773 44.2954C101.061 46.2821 102.831 49.3333 103.985 53.4488L94.9884 55.8169C94.6737 54.6283 94.3436 53.7591 93.9991 53.2092C93.429 52.2868 92.7323 51.5772 91.9071 51.0805C91.0827 50.5838 90.1605 50.3355 89.1404 50.3355C86.8315 50.3355 85.062 51.4353 83.8327 53.6349C82.9028 55.2669 82.4383 57.8302 82.4383 61.3249C82.4383 65.6533 82.993 68.6245 84.1023 70.2388C85.2126 71.8354 86.772 72.6336 88.7805 72.6336C90.7305 72.6336 92.1997 71.9861 93.1891 70.6912C94.1939 69.3961 94.9213 67.5159 95.3713 65.0501ZM111.249 80.9891V41.9804H128.229C131.378 41.9804 133.785 42.2996 135.449 42.9382C137.114 43.5768 138.455 44.7654 139.475 46.5039C140.494 48.2245 141.004 50.3267 141.004 52.8101C141.004 54.9743 140.614 56.8457 139.835 58.4246C139.055 59.9856 137.983 61.254 136.618 62.2295C135.749 62.8504 134.557 63.3648 133.043 63.7729C134.257 64.2519 135.142 64.7308 135.696 65.2097C136.071 65.5291 136.611 66.212 137.316 67.2586C138.036 68.3052 138.516 69.1123 138.756 69.68L143.68 80.9891H132.165L126.723 69.068C126.033 67.5247 125.418 66.5225 124.878 66.0612C124.143 65.4581 123.311 65.1566 122.381 65.1566H121.482V80.9891H111.249ZM121.482 57.786H125.777C126.243 57.786 127.142 57.6085 128.477 57.2537C129.152 57.0941 129.699 56.6861 130.119 56.0298C130.554 55.3734 130.77 54.6195 130.77 53.768C130.77 52.5085 130.434 51.5418 129.759 50.8676C129.084 50.1936 127.817 49.8565 125.958 49.8565H121.482V57.786ZM148.695 41.9804H162.1L167.273 65.7153L172.423 41.9804H185.784V80.9891H177.462V51.2401L171.006 80.9891H163.472L157.039 51.2401V80.9891H148.695V41.9804Z" fill="#B55890"/>
<path id="Vector_5" d="M189.532 75.1215C189.449 75.4073 189.444 75.6953 189.516 75.9857C189.598 76.2715 189.746 76.5448 189.961 76.8034C190.186 77.0575 190.478 77.2832 190.839 77.4816C191.193 77.6756 191.536 77.8298 191.871 77.9432C192.209 78.0487 192.52 78.1145 192.803 78.1395C193.095 78.1689 193.337 78.1576 193.533 78.1032L193.816 81.5726C193.596 81.6429 193.296 81.6792 192.915 81.6803C192.534 81.6814 192.046 81.5941 191.451 81.4172C190.864 81.2448 190.15 80.9284 189.309 80.4656C188.333 79.9292 187.538 79.2464 186.925 78.4173C186.312 77.5883 185.944 76.648 185.819 75.5955C185.698 74.5351 185.886 73.3975 186.382 72.1844C186.783 71.2006 187.336 70.42 188.04 69.8427C188.746 69.2573 189.553 68.9331 190.463 68.8703C191.374 68.7993 192.343 69.0455 193.368 69.609C194.35 70.1491 195.12 70.8182 195.677 71.6163C196.236 72.4063 196.547 73.3102 196.608 74.3276C196.669 75.3438 196.448 76.4677 195.945 77.6971C195.918 77.7629 195.861 77.8922 195.773 78.085C195.693 78.2824 195.634 78.4049 195.596 78.4548L189.532 75.1215ZM192.901 74.5635C193.005 74.289 193.051 74.0179 193.039 73.7503C193.034 73.4871 192.969 73.2456 192.842 73.0244C192.715 72.8044 192.525 72.6248 192.271 72.4849C192.023 72.3489 191.781 72.2858 191.543 72.2957C191.306 72.3056 191.089 72.388 190.897 72.5428C190.707 72.6896 190.545 72.9064 190.41 73.1945L192.901 74.5635Z" fill="#292929"/>
<path id="Vector_6" d="M137.889 41.7515L138.566 40.1687C138.437 40.2917 138.182 40.4307 137.802 40.5857C137.428 40.7446 136.984 40.8282 136.471 40.8365C135.962 40.8369 135.435 40.6788 134.891 40.3619C134.075 39.8867 133.459 39.2408 133.044 38.4242C132.633 37.5997 132.423 36.6996 132.416 35.7241C132.411 34.7406 132.614 33.7729 133.02 32.8208C133.428 31.8687 133.968 31.103 134.641 30.5234C135.316 29.9359 136.061 29.5865 136.873 29.4747C137.685 29.3631 138.499 29.5448 139.314 30.0201C139.838 30.325 140.254 30.6914 140.564 31.1195C140.877 31.5396 141.098 31.9558 141.227 32.3681C141.36 32.7725 141.427 33.1136 141.427 33.3911L142.037 31.963L145.118 33.757L140.938 43.5276L137.889 41.7515ZM136.06 34.591C135.87 35.0353 135.787 35.4875 135.811 35.9475C135.839 36.3995 135.955 36.8098 136.163 37.1785C136.378 37.5511 136.665 37.8423 137.025 38.0522C137.399 38.2701 137.772 38.3629 138.142 38.3309C138.512 38.2989 138.853 38.1559 139.166 37.9018C139.489 37.6438 139.745 37.2926 139.935 36.8484C140.125 36.404 140.21 35.9579 140.19 35.5098C140.179 35.0577 140.073 34.6493 139.873 34.2846C139.675 33.9121 139.39 33.6168 139.016 33.399C138.656 33.1892 138.282 33.1002 137.894 33.1322C137.517 33.1602 137.164 33.3013 136.834 33.5554C136.508 33.8016 136.25 34.1467 136.06 34.591ZM143.008 44.7329L147.187 34.9623L150.287 36.7683L146.108 46.5388L143.008 44.7329ZM149.638 33.8778C149.149 33.5926 148.819 33.1527 148.649 32.558C148.482 31.9554 148.517 31.3763 148.755 30.821C148.992 30.2656 149.368 29.8846 149.881 29.678C150.404 29.4674 150.907 29.5027 151.39 29.7839C151.709 29.97 151.961 30.2355 152.144 30.5804C152.331 30.9173 152.44 31.288 152.472 31.6925C152.502 32.0969 152.437 32.4896 152.273 32.8704C152.036 33.4258 151.657 33.8048 151.137 34.0075C150.621 34.2021 150.121 34.1589 149.638 33.8778Z" fill="#292929"/>
</g>
</svg>
